<svg width="32" height="32" viewBox="0 0 32 32" fill="none" xmlns="http://www.w3.org/2000/svg">
<rect x="0.5" y="0.5" width="31" height="31" rx="15.5" fill="white"/>
<path d="M10.6667 15.6198L10.6667 20.2865M13 15.3447V19.715C13 20.4514 13.5969 21.0484 14.3333 21.0484H19.5935C20.22 21.0484 20.7621 20.6121 20.896 20L21.823 15.7623C21.9139 15.3465 21.5973 14.9531 21.1717 14.9531H18.6667C17.9303 14.9531 17.3333 14.3562 17.3333 13.6198V12.698C17.3333 12.0076 17.0591 11.3455 16.5709 10.8574C16.2774 10.5639 15.7878 10.6165 15.5634 10.9656L13.2118 14.6237C13.0735 14.8388 13 15.0891 13 15.3447Z" stroke="#5F6D7E" stroke-width="2" stroke-linecap="round"/>
<rect x="0.5" y="0.5" width="31" height="31" rx="15.5" stroke="#DAE0E6"/>
</svg>
