<svg width="32" height="32" viewBox="0 0 32 32" fill="none" xmlns="http://www.w3.org/2000/svg">
<rect x="0.5" y="0.5" width="31" height="31" rx="15.5" fill="white"/>
<path d="M13.3333 14V12.6667C13.3333 11.1939 14.5272 10 16 10C17.4727 10 18.6666 11.1939 18.6666 12.6667V14M13.4666 22H18.5333C19.2801 22 19.6534 22 19.9386 21.8547C20.1895 21.7268 20.3935 21.5229 20.5213 21.272C20.6666 20.9868 20.6666 20.6134 20.6666 19.8667V16.1333C20.6666 15.3866 20.6666 15.0132 20.5213 14.728C20.3935 14.4771 20.1895 14.2732 19.9386 14.1453C19.6534 14 19.28 14 18.5333 14H13.4666C12.7199 14 12.3465 14 12.0613 14.1453C11.8104 14.2732 11.6065 14.4771 11.4786 14.728C11.3333 15.0132 11.3333 15.3866 11.3333 16.1333V19.8667C11.3333 20.6134 11.3333 20.9868 11.4786 21.272C11.6065 21.5229 11.8104 21.7268 12.0613 21.8547C12.3465 22 12.7199 22 13.4666 22Z" stroke="#437EF7" stroke-width="2" stroke-linecap="round"/>
<rect x="0.5" y="0.5" width="31" height="31" rx="15.5" stroke="#648EF7"/>
</svg>
